<?xml version="1.0" standalone="no"?>
<!DOCTYPE svg PUBLIC "-//W3C//DTD SVG 20010904//EN"
 "http://www.w3.org/TR/2001/REC-SVG-20010904/DTD/svg10.dtd">
<svg version="1.0" xmlns="http://www.w3.org/2000/svg"
 width="800.000000pt" height="800.000000pt" viewBox="0 0 800.000000 800.000000"
 preserveAspectRatio="xMidYMid meet">
<metadata>
Created by potrace 1.14, written by Peter Selinger 2001-2017
</metadata>
<g transform="translate(0.000000,800.000000) scale(0.100000,-0.100000)"
fill="#000000" stroke="none">
<path d="M3825 7565 c-143 -34 -228 -73 -332 -151 -399 -298 -457 -906 -122
-1277 33 -36 59 -69 59 -75 0 -5 -10 -17 -21 -28 -30 -26 -86 -116 -112 -178
-29 -70 -31 -296 -3 -366 29 -74 30 -89 9 -113 -33 -37 -62 -94 -84 -169 -19
-61 -21 -86 -16 -176 3 -58 14 -126 23 -152 l17 -47 -30 -44 c-77 -112 -98
-299 -53 -473 9 -33 10 -54 3 -65 -68 -111 -103 -223 -103 -330 1 -59 17 -148
34 -192 5 -10 -3 -31 -18 -53 -30 -45 -64 -132 -77 -200 -12 -62 -11 -189 1
-241 8 -36 6 -44 -19 -80 -78 -112 -105 -218 -98 -388 5 -126 4 -130 -24 -185
-15 -31 -33 -77 -39 -102 l-11 -46 -117 -43 c-64 -24 -153 -57 -197 -73 -44
-16 -142 -52 -218 -79 -174 -62 -175 -62 -183 -104 -8 -45 22 -226 47 -285 26
-61 74 -103 396 -347 158 -121 680 -521 1008 -774 94 -72 176 -133 183 -136 7
-3 92 27 190 67 225 91 211 85 252 103 19 8 143 59 275 112 821 332 1146 466
1203 494 31 16 75 37 97 47 61 28 152 92 175 124 33 47 51 110 55 195 5 102
-1 130 -35 163 -23 23 -188 130 -548 356 -42 26 -80 53 -83 58 -4 5 -9 36 -12
68 -8 73 -34 142 -88 233 l-42 71 2 111 c2 128 -21 228 -70 309 l-30 48 15 62
c26 103 21 229 -13 333 -16 49 -40 109 -53 133 -18 34 -23 53 -17 75 14 62 9
228 -10 301 -17 66 -56 147 -89 186 -13 15 -12 26 2 85 44 190 24 337 -65 479
-35 55 -38 65 -28 90 20 53 23 232 6 301 -19 71 -64 165 -101 206 l-24 28 18
42 c10 23 24 81 31 128 10 73 9 98 -4 165 -20 98 -77 211 -135 269 -43 42 -44
43 -24 61 83 81 162 215 208 354 26 79 28 96 28 250 1 176 -7 216 -61 350
-104 253 -317 438 -582 504 -111 28 -255 32 -346 11z"/>
</g>
</svg>
